<svg xmlns="http://www.w3.org/2000/svg" width="480" height="384" viewBox="0 0 480 384">
<g fill="#FFFFFF" fill-rule="evenodd">
<polygon points="45 337.295 45 284.114 133.636 195.477 177.955 239.795 319.772 97.977 435 213.204 435 337.295"/>
<path d="M45,106.841 C45,92.068 50.17,79.512 60.511,69.171 C70.852,58.83 83.408,53.66 98.181,53.66 C112.954,53.66 125.511,58.83 135.851,69.171 C146.192,79.512 151.363,92.068 151.363,106.841 C151.363,121.614 146.193,134.171 135.851,144.511 C125.51,154.852 112.954,160.022 98.181,160.022 C83.408,160.022 70.852,154.852 60.511,144.511 C50.17,134.17 45,121.614 45,106.841 Z"/>
</g>
</svg>
