<svg xmlns="http://www.w3.org/2000/svg" viewBox="0 0 418 483">
    <g fill="none" fill-rule="evenodd">
        <path stroke="currentColor" stroke-width="25"
            d="M209 14.436l196.5 113.528v227.072L209 468.564 12.5 355.036V127.964L209 14.436z" />
        <path fill="currentColor" fill-rule="nonzero"
            d="M219.187 351c38.747 0 72.65-19.038 90.813-48.956l-41.774-24.176c-9.081 16.319-27.547 25.99-49.04 25.99-37.535 0-61.752-25.083-61.752-62.858s24.217-62.857 61.753-62.857c21.492 0 39.655 9.67 49.039 25.989L310 179.956C291.535 150.038 257.631 131 219.187 131 155.315 131 109 178.747 109 241s46.315 110 110.187 110z" />
    </g>
</svg>
